<?xml version="1.0" standalone="no"?>
<!DOCTYPE svg PUBLIC "-//W3C//DTD SVG 1.1//EN" "http://www.w3.org/Graphics/SVG/1.1/DTD/svg11.dtd" >
<svg xmlns="http://www.w3.org/2000/svg">
<metadata></metadata>
<defs>
<font id="GlegooRegular" horiz-adv-x="1187" >
<font-face units-per-em="2048" ascent="1638" descent="-410" />
<missing-glyph horiz-adv-x="583" />
<glyph horiz-adv-x="0" />
<glyph horiz-adv-x="2048" />
<glyph unicode=" "  horiz-adv-x="583" />
<glyph unicode="&#x09;" horiz-adv-x="583" />
<glyph unicode="&#xa0;" horiz-adv-x="583" />
<glyph unicode="!" horiz-adv-x="647" d="M225 113q0 45 18.5 77.5t81 32.5t81.5 -39q10 -20 13 -37.5t3 -58.5t-18.5 -72.5t-70.5 -31.5t-76 20.5t-28 42t-4 66.5zM240 1171v324h163v-324l-36 -792h-91z" />
<glyph unicode="&#x22;" horiz-adv-x="819" d="M164 1331v164h164v-164l-37 -325h-90zM492 1331v164h163v-164l-37 -325h-90z" />
<glyph unicode="#" horiz-adv-x="1628" d="M123 307l20 121h236l92 514h-238l21 121h240l96 524h145l-96 -524h489l97 524h145l-96 -524h231l-20 -121h-234l-92 -514h236l-21 -121h-237l-95 -524h-145l94 524h-489l-94 -524h-146l94 524h-233zM524 428h490l92 514h-490z" />
<glyph unicode="$" d="M150 399h147q0 -139 54.5 -212.5t195.5 -86.5v527l-43 6q-178 27 -256 117t-78 265t86 274.5t291 109.5v125h102v-125q203 -14 291 -121t88 -305h-147q0 139 -50.5 213t-181.5 86v-527l43 -6q188 -29 272.5 -119t84.5 -261t-93.5 -273t-306.5 -113v-125h-102v125 q-215 10 -306 118t-91 308zM317 1001q0 -203 187 -233l43 -6v510q-131 -12 -180.5 -78t-49.5 -193zM649 100q141 8 196.5 75t55.5 196q0 197 -209 233l-43 6v-510z" />
<glyph unicode="%" horiz-adv-x="2011" d="M145 969.5q0 111.5 9.5 180.5t38.5 132q55 119 245 119q152 0 219 -74q57 -66 72 -209q4 -59 4 -159.5t-9 -169t-38 -131t-90 -91t-157.5 -28.5t-157 28.5t-89 91t-38 131t-9.5 180zM258 969.5q0 -187.5 34 -264t147.5 -76.5t147.5 76.5t34 264t-34 264.5t-147.5 77 t-147.5 -77t-34 -264.5zM713 -135l438 1640h109l-441 -1640h-106zM1274 414.5q0 111.5 9 180.5t38 130q55 121 246 121q152 0 219 -76q57 -63 69 -209q6 -57 6.5 -157.5t-9 -169t-38 -131t-90 -91t-158 -28.5t-156.5 28.5t-89 91t-38 131t-9 180zM1386 414.5 q0 -187.5 34 -264t147.5 -76.5t147.5 76.5t34 264t-34 264.5t-147.5 77t-147.5 -77t-34 -264.5z" />
<glyph unicode="&#x26;" horiz-adv-x="1247" d="M113 373q0 143 63.5 237.5t169.5 134.5q-90 47 -142 133.5t-52 196.5q0 387 411 387q385 0 385 -397h-127q0 276 -256 276q-150 0 -210 -69.5t-60 -196.5t70.5 -207t191.5 -80h690v-110h-231v-311q0 -197 -100.5 -296.5t-340.5 -99.5q-462 1 -462 402zM256 365 q0 -272 319 -273q168 0 241 70.5t73 204.5v311h-350q-147 0 -215 -85t-68 -228z" />
<glyph unicode="'" horiz-adv-x="491" d="M164 1331v164h164v-164l-37 -325h-90z" />
<glyph unicode="(" horiz-adv-x="602" d="M133 633q0 223 8.5 335.5t35 223.5t75.5 172q111 141 340 141v-127q-135 0 -199 -84q-88 -121 -98 -405q-4 -82 -4 -203t3 -204t14 -168t31.5 -139t53.5 -97q64 -86 199 -86v-127q-207 0 -301 98q-102 106 -131 283q-27 164 -27 387z" />
<glyph unicode=")" horiz-adv-x="602" d="M10 -8q135 0 199 86q88 119 98 403q4 82 4 203t-3 204t-14 168t-31.5 139t-53.5 99q-64 84 -199 84v127q207 0 301 -100q102 -104 131 -281q27 -164 27 -387t-8 -335.5t-35 -223t-76 -174.5q-111 -139 -340 -139v127z" />
<glyph unicode="*" horiz-adv-x="1130" d="M55 1167l51 154l154 -49l223 -133l-16 -45l-258 22zM201 723l94 133l194 170l39 -31l-100 -237l-96 -131zM483 1434v161h164v-161l-57 -252h-49zM600 995l41 29l195 -168l94 -133l-131 -96l-97 131zM649 1139l219 133l156 49l51 -154l-153 -51l-258 -24z" />
<glyph unicode="+" d="M193 590v123h339v340h123v-340h340v-123h-340v-340h-123v340h-339z" />
<glyph unicode="," horiz-adv-x="462" d="M78 -190q27 25 41 40q39 45 39 121l-25 131q0 37 4 58.5t26.5 42t76 20.5t72 -32.5t18.5 -89t-21.5 -114t-50.5 -98.5q-68 -88 -111 -118l-22 -17z" />
<glyph unicode="-" horiz-adv-x="1007" d="M143 590v123h721v-123h-721z" />
<glyph unicode="." horiz-adv-x="462" d="M133 102q0 37 4 58.5t26.5 42t76 20.5t72 -32.5t18.5 -72.5t-3 -57.5t-12 -35.5q-20 -41 -101 -41.5t-81 118.5z" />
<glyph unicode="/" horiz-adv-x="630" d="M0 -217l485 1804h146l-486 -1804h-145z" />
<glyph unicode="0" d="M123 686q0 121 5 204t21.5 171t49 144.5t84.5 103.5q94 90 309 90q236 0 350 -125q92 -102 113 -346q8 -96 8 -241.5t-8 -242t-36 -194.5t-78 -153.5t-137 -90.5t-202 -35t-192.5 21.5t-128 69t-83 103.5t-49 144t-21.5 172t-5 205zM266 686q0 -127 6.5 -211t24.5 -163 t54 -123t95.5 -70.5t145.5 -26.5t146.5 26.5t95 70.5t54 123t26 163t6.5 211t-6.5 210t-26 162t-54 123t-95 70.5t-146.5 26.5t-145.5 -26.5t-95.5 -70.5t-54 -123t-24.5 -162t-6.5 -210z" />
<glyph unicode="1" d="M272 0v121h287v1057h-276v92q205 20 317 102h107v-1251h286v-121h-721z" />
<glyph unicode="2" d="M156 0v117l536 579q92 100 138.5 176t46.5 179.5t-63.5 166t-221.5 62.5t-219.5 -69.5t-61.5 -206.5h-127q0 193 95.5 295t318.5 102q422 0 422 -365q0 -119 -65.5 -226.5t-182.5 -234.5l-422 -454h684v-121h-878z" />
<glyph unicode="3" d="M154 367h127q0 -133 72.5 -204t240.5 -71q319 0 319 248q0 129 -67.5 207t-214.5 78h-217v110h219q123 0 192.5 77t69.5 203t-66.5 195.5t-234.5 69.5q-287 0 -287 -276h-127q0 397 414 397q238 0 341 -102.5t103 -294.5q0 -109 -58 -192t-155 -126q106 -39 169 -126 t63 -218q0 -371 -463 -371q-238 0 -339 101.5t-101 294.5z" />
<glyph unicode="4" d="M66 307v119l600 946h229v-944h172v-121h-172v-307h-145v307h-684zM227 428h523v823z" />
<glyph unicode="5" d="M170 399h127q0 -152 65.5 -229.5t236.5 -77.5t240.5 77t69.5 233.5t-108.5 226t-378.5 69.5h-223l43 674h735v-121h-615l-26 -432h88q332 0 480.5 -93t148.5 -315.5t-104.5 -331t-343 -108.5t-337 108.5t-98.5 319.5z" />
<glyph unicode="6" d="M125 592q0 526 129 678q111 131 342 131t329.5 -100.5t100.5 -313.5h-127q0 156 -70.5 224.5t-234.5 68.5q-162 0 -238 -94q-88 -109 -88 -455q178 53 324 53q459 1 459 -370q0 -211 -104.5 -327t-363.5 -116t-358.5 147.5t-99.5 473.5zM268 618q4 -305 71 -415.5 t249 -110.5t250.5 82t68.5 240q0 114 -75.5 185t-242.5 71t-321 -52z" />
<glyph unicode="7" d="M176 1040v332h879v-115l-541 -1257h-158l541 1251h-612v-211h-109z" />
<glyph unicode="8" d="M135 348q0 250 225 336q-206 78 -206 320q0 193 101 295t338.5 102t339 -102.5t101.5 -294.5q0 -223 -213 -310q119 -41 175.5 -123t56.5 -223q0 -377 -459 -377t-459 377zM278.5 346q0.5 -254 315.5 -254t315 256q0 125 -50 187.5t-175 82.5l-158 25 q-248 -43 -247.5 -297zM297 1013q0 -126 50 -182.5t177 -76.5l119 -21q248 44 248 271q0 135 -65.5 205.5t-231.5 70.5t-231.5 -70.5t-65.5 -196.5z" />
<glyph unicode="9" d="M129 969q4 209 113.5 320.5t353.5 111.5q143 0 233.5 -39t139.5 -131t65.5 -212t16.5 -293t-9.5 -275.5t-37 -199.5t-78.5 -155q-109 -125 -341.5 -125t-332.5 105.5t-102 308.5h126q0 -145 72 -219t243 -74t239.5 108.5t74.5 415.5q-160 -47 -315 -47q-461 0 -461 400z M272 985q0 -137 77 -218t240 -81t318 41q-2 334 -63.5 443.5t-241.5 109.5t-255 -79t-75 -216z" />
<glyph unicode=":" horiz-adv-x="462" d="M133 102q0 37 4 58.5t26.5 42t76 20.5t72 -32.5t18.5 -72.5t-3 -57.5t-12 -35.5q-20 -41 -101 -41.5t-81 118.5zM133 965q0 37 4 58t26.5 41.5t76 20.5t72 -32.5t18.5 -72.5t-3 -57.5t-12 -37.5q-20 -39 -101 -39t-81 119z" />
<glyph unicode=";" horiz-adv-x="462" d="M78 -190q27 25 41 40q39 45 39 121l-25 131q0 37 4 58.5t26.5 42t76 20.5t72 -32.5t18.5 -89t-21.5 -114t-50.5 -98.5q-68 -88 -111 -118l-22 -17zM133 965q0 37 4 58t26.5 41.5t76 20.5t72 -32.5t18.5 -72.5t-3 -57.5t-12 -37.5q-20 -39 -101 -39t-81 119z" />
<glyph unicode="&#x3c;" d="M182 571v156l824 344v-135l-703 -287l703 -287v-135z" />
<glyph unicode="=" d="M193 385v123h802v-123h-802zM193 795v123h802v-123h-802z" />
<glyph unicode="&#x3e;" d="M182 227v135l703 287l-703 287v135l824 -344v-156z" />
<glyph unicode="?" horiz-adv-x="991" d="M86 1171q0 172 95 262.5t319.5 90.5t325 -108.5t100.5 -320.5t-89 -298t-278 -115l-33 -4l-22 -299h-94l-15 389l105 12q139 17 212.5 82.5t73.5 224t-65.5 237.5t-233.5 79q-279 0 -278 -232h-123zM358 113q0 45 18.5 77.5t81 32.5t83.5 -39q8 -20 11 -37.5t3 -58.5 t-18.5 -72.5t-70.5 -31.5t-75.5 20.5t-28 42t-4.5 66.5z" />
<glyph unicode="@" horiz-adv-x="2007" d="M184 672q0 223 36 373.5t127 263t252 165t404.5 52.5t404.5 -52.5t252 -165t127 -263t36 -373.5q0 -403 -136.5 -607t-490.5 -243v504q-133 -109 -292 -109t-221 65.5t-62 200.5t60 200t228 75l287 16v160q0 84 -48 118.5t-162 34.5t-157 -44t-49 -142l-118 4 q10 147 81.5 221t260.5 74q324 0 323 -262v-979q213 49 287 242q66 174 65 471q0 158 -16 267.5t-59 204.5t-118 151.5t-195 87t-287.5 30.5t-287.5 -30.5t-196 -87t-119 -151.5t-58 -205t-15 -267.5t15 -267t58 -205t119 -150.5q158 -119 484 -119v-112q-244 0 -405 52 t-252 164.5t-127 263.5t-36 374zM754 490.5q0 -91.5 39 -129t133 -37.5q145 0 270 114v242l-270 -16q-100 -6 -136 -44t-36 -129.5z" />
<glyph unicode="A" horiz-adv-x="1337" d="M10 0v102h94l465 1393h199l463 -1393h96v-102h-364v102h120l-125 381h-581l-125 -381h123v-102h-365zM418 604h502l-252 762z" />
<glyph unicode="B" horiz-adv-x="1288" d="M143 0v102h123v1291h-123v102h512q317 0 406 -164q43 -82 43 -214t-41 -216t-158 -127q166 -31 223.5 -126t57.5 -249q0 -233 -121 -319q-109 -80 -328 -80h-594zM414 121h323q180 0 240.5 72.5t60.5 216t-60 218t-241 74.5h-323v-581zM414 827h241q180 0 240.5 70 t60.5 205t-60 203.5t-241 68.5h-241v-547z" />
<glyph unicode="C" horiz-adv-x="1267" d="M123 720q0 228 19.5 357t75.5 237.5t167 159t283 50.5q268 0 372 -181v152h111v-442h-111q-12 170 -95 259t-277 89q-201 0 -295 -111q-78 -94 -94 -319q-9 -87 -9 -227v-23q0 -123 6 -199q6 -82 28 -176t65 -141q100 -111 302.5 -111t277.5 90t81 250l121 -6 q-8 -111 -30.5 -187.5t-71.5 -142.5q-98 -127 -361 -127q-258 0 -375 95q-61 51 -100 111.5t-57 156.5q-33 158 -33 386z" />
<glyph unicode="D" horiz-adv-x="1409" d="M143 0v102h123v1291h-123v102h564q264 0 383 -92q63 -49 102 -107.5t59 -148.5q35 -156 35 -355.5t-10 -303t-44 -204t-97 -157.5q-137 -127 -428 -127h-564zM414 121h293q141 0 230 41t132 131t56.5 190.5t13.5 264t-13.5 264t-56.5 190.5t-132 131t-230 41h-293v-1253z " />
<glyph unicode="E" horiz-adv-x="1269" d="M143 0v102h123v1291h-123v102h963v-324h-115v203h-577v-553h590v-123h-590v-577h618v203h115v-324h-1004z" />
<glyph unicode="F" horiz-adv-x="1146" d="M143 0v104h123v1289h-123v102h922v-324h-115v203h-536v-553h549v-123h-549v-594h164v-104h-435z" />
<glyph unicode="G" horiz-adv-x="1374" d="M123 748q0 160 11 269t46 211.5t96 164.5q135 131 403.5 131t371.5 -187v158h110v-442h-110q-12 162 -91 255t-270 93q-211 0 -311 -111q-84 -94 -100 -319q-8 -88 -9 -218v-36q0 -104 3 -167q3 -73 15.5 -158t38 -132t70.5 -88q80 -78 273 -78q360 0 370 340v211h-233 v103h364v-748h-84l-22 172q-113 -201 -395 -201q-199 0 -334 70q-100 51 -160 197q-53 135 -53 510z" />
<glyph unicode="H" horiz-adv-x="1540" d="M143 0v102h123v1291h-123v102h394v-102h-123v-584h712v584h-122v102h393v-102h-123v-1291h123v-102h-393v102h122v584h-712v-584h123v-102h-394z" />
<glyph unicode="I" horiz-adv-x="720" d="M143 0v102h144v1291h-144v102h435v-102h-144v-1291h144v-102h-435z" />
<glyph unicode="J" horiz-adv-x="964" d="M41 375h127q0 -158 46 -219.5t175 -61.5t171 59.5t42 221.5v1018h-164v102h434v-102h-122v-1018q0 -250 -93 -328q-90 -76 -272 -76q-166 0 -238 60q-37 31 -59 62.5t-33 84.5q-14 74 -14 197z" />
<glyph unicode="K" horiz-adv-x="1288" d="M143 0v102h123v1291h-123v102h394v-102h-123v-576h178l371 576h-109v102h373v-102h-111l-416 -639l439 -652h108v-102h-373v102h105l-395 594h-170v-594h123v-102h-394z" />
<glyph unicode="L" horiz-adv-x="1038" d="M143 0v102h123v1291h-123v102h435v-102h-164v-1272h489v203h115v-324h-875z" />
<glyph unicode="M" horiz-adv-x="1835" d="M143 0v102h123v1291h-123v102h326l434 -1204l463 1204h326v-102h-123v-1291h123v-102h-394v102h123v1162l-446 -1149h-148l-413 1132v-1145h123v-102h-394z" />
<glyph unicode="N" horiz-adv-x="1576" d="M143 0v102h123v1291h-123v102h287l754 -1251v1149h-123v102h393v-102h-123v-1393h-164l-753 1249v-1147h123v-102h-394z" />
<glyph unicode="O" horiz-adv-x="1382" d="M123 746.5q0 162.5 9 268t43 211t94.5 165t165 96.5t256 37t256 -37t166 -96.5t94 -164t43 -211t10.5 -268t-10.5 -269t-43 -212t-94 -164t-166 -95.5t-256 -36t-256 36t-165 95.5t-94.5 165t-43 211t-9 268zM270 747.5q0 -135.5 7.5 -224.5t32 -178t69.5 -139t123 -81 t188.5 -31t188 31t124 81t71 139t31.5 178t7 224.5t-7 224.5t-31.5 178t-71 139t-124 81t-188 31t-188.5 -31t-123 -81t-69.5 -139t-32 -178t-7.5 -224.5z" />
<glyph unicode="P" horiz-adv-x="1226" d="M143 0v102h123v1291h-123v102h533q289 0 377 -145q43 -72 57 -143.5t14 -166t-7 -154t-33.5 -125t-73.5 -106.5q-111 -92 -334 -92h-262v-461h164v-102h-435zM414 684h262q195 0 254 102q29 51 38 104.5t9 137.5t-9.5 138.5t-37.5 107.5q-59 100 -254 100h-262v-690z" />
<glyph unicode="Q" horiz-adv-x="1382" d="M123 749q0 160 9 265.5t43 211t94.5 165t165 96.5t256 37t256 -37t166 -96.5t94 -164t43 -211t10.5 -263t-8.5 -258t-37 -201.5t-79.5 -162q-111 -135 -344 -156l186 -368h-154l-184 366q-260 12 -383 144q-100 108 -125 370q-8 102 -8 262zM270 747.5 q0 -135.5 7.5 -224.5t32 -178t69.5 -139t123 -81t188.5 -31t188 31t124 81t71 139t31.5 178t7 224.5t-7 224.5t-31.5 178t-71 139t-124 81t-188 31t-188.5 -31t-123 -81t-69.5 -139t-32 -178t-7.5 -224.5z" />
<glyph unicode="R" horiz-adv-x="1349" d="M143 0v102h123v1291h-123v102h553q328 0 408 -186q27 -61 34 -116.5t7 -133.5t-8.5 -135.5t-34.5 -116.5q-51 -121 -217 -162q57 -41 100 -135l176 -408h127v-102h-239l-207 485q-37 84 -96.5 112t-170.5 28h-161v-523h123v-102h-394zM414 745h282q197 0 254 95 q29 47 38 96t9 124t-9 124t-38 96q-57 94 -254 94h-282v-629z" />
<glyph unicode="S" horiz-adv-x="1179" d="M96 0v442h111q4 -154 100 -251t287.5 -97t268.5 69.5t77 210t-55.5 198t-202.5 85.5l-184 35q-221 43 -304 125t-83 284t98 312.5t340 110.5q281 0 391 -189v160h111v-365h-111q-41 270 -360 271q-186 0 -254 -76t-68 -217t47 -194.5t199 -82.5l182 -34q225 -43 313 -128 t88 -285t-105 -306.5t-377.5 -106.5t-397.5 205v-176h-111z" />
<glyph unicode="T" horiz-adv-x="1101" d="M20 1171v324h1061v-324h-114v203h-342v-1272h163v-102h-475v102h164v1272h-342v-203h-115z" />
<glyph unicode="U" horiz-adv-x="1536" d="M113 1393v102h393v-102h-123v-899q0 -256 121 -334q57 -37 117.5 -50.5t145.5 -13.5t145.5 13.5t119.5 50.5q121 78 121 334v899h-123v102h393v-102h-123v-899q0 -262 -108 -388q-45 -55 -120 -86.5t-143.5 -40t-162.5 -8.5t-161.5 8.5t-141.5 40t-119 86.5 q-109 125 -108 388v899h-123z" />
<glyph unicode="V" horiz-adv-x="1284" d="M20 1380v115h373v-115h-129l377 -1255l379 1255h-129v115h373v-115h-99l-424 -1380h-198l-426 1380h-97z" />
<glyph unicode="W" horiz-adv-x="1820" d="M31 1380v115h372v-115h-139l275 -1259l299 1374h145l299 -1374l274 1259h-139v115h373v-115h-88l-311 -1380h-215l-267 1210l-264 -1210h-215l-313 1380h-86z" />
<glyph unicode="X" horiz-adv-x="1353" d="M61 0v115h111l416 665l-381 600h-111v115h373v-115h-92l309 -487l295 487h-96v115h372v-115h-112l-381 -610l418 -655h110v-115h-372v115h92l-346 542l-330 -542h98v-115h-373z" />
<glyph unicode="Y" horiz-adv-x="1150" d="M20 1380v115h373v-115h-127l309 -700l308 700h-125v115h372v-115h-94l-387 -858v-407h144v-115h-435v115h144v407l-389 858h-93z" />
<glyph unicode="Z" horiz-adv-x="1116" d="M61 0v94l785 1270h-629v-193h-115v324h932v-94l-784 -1270h690v193h115v-324h-994z" />
<glyph unicode="[" horiz-adv-x="581" d="M164 -135v1640h407v-127h-258v-1386h258v-127h-407z" />
<glyph unicode="\" horiz-adv-x="630" d="M0 1587h145l486 -1804h-146z" />
<glyph unicode="]" horiz-adv-x="581" d="M10 -8h258v1386h-258v127h408v-1640h-408v127z" />
<glyph unicode="^" d="M213 647l303 619h156l303 -619h-135l-246 514l-246 -514h-135z" />
<glyph unicode="_" d="M143 0h901v-123h-901v123z" />
<glyph unicode="`" horiz-adv-x="643" d="M102 1585l109 109l330 -330l-86 -86z" />
<glyph unicode="a" horiz-adv-x="1253" d="M131 304q0 169 74 247t280 92l379 25v204q0 207 -262 207q-174 0 -232.5 -59t-66.5 -186l-121 6q6 88 25.5 147.5t62.5 110.5q86 102 332 102q406 0 406 -328v-770h122v-102h-219l-37 133q-180 -162 -384.5 -162t-281.5 82t-77 251zM270 309q0 -121 51.5 -171t176.5 -50 q199 0 366 160v309l-370 -22q-131 -8 -177.5 -56.5t-46.5 -169.5z" />
<glyph unicode="b" horiz-adv-x="1302" d="M82 1434v102h266v-446q184 110 358 111q2 0 3 -1q309 0 389 -262q41 -141 41 -301t-7.5 -239t-34 -165t-71.5 -139q-104 -123 -308 -123t-388 133l-29 -104h-96v1434h-123zM348 209q154 -117 320 -117q170 0 245 94q63 76 78 244q4 61 4 143t-4 134.5t-14 113 t-31.5 104.5t-54.5 81q-66 74 -219 74h-2q-156 0 -322 -107v-764z" />
<glyph unicode="c" horiz-adv-x="1161" d="M123 585.5q0 108.5 9 190.5t39 166t79 137q115 121 340 121t328 -156l-3 127h105v-413h-94q-18 162 -96 241.5t-238 79.5q-88 0 -150.5 -30.5t-95.5 -74.5t-51 -116q-29 -102 -29 -223t3 -170t13.5 -112.5t33 -104.5t57.5 -80q72 -76 240.5 -76t231 59.5t70.5 186.5 l117 -6q-6 -88 -25.5 -147.5t-64.5 -112t-129 -77t-209 -24.5t-216 35t-141 88t-79 139t-37 165t-8 187.5z" />
<glyph unicode="d" horiz-adv-x="1302" d="M123 585.5q0 108.5 7 187.5t35 165t75 139t132 88t225 35t316 -74v308h-122v102h266v-1434h123v-102h-219l-27 123q-172 -152 -371 -152q-115 0 -197.5 35t-129 88t-73 139t-33.5 165t-7 187.5zM266 573q0 -232 66 -356q66 -125 249 -125t332 137v781q-148 69 -314 69h-5 q-199 0 -266 -141q-62 -128 -62 -365z" />
<glyph unicode="e" horiz-adv-x="1204" d="M123 586q0 109 8 187.5t37 164.5t80 139t141 88t215 35t214 -35t139.5 -88t79 -139t36.5 -165t8 -187v-33h-815q2 -250 71 -355.5t262.5 -105.5t263 70.5t81.5 206.5l119 -7q-8 -88 -28.5 -150t-67.5 -122q-94 -119 -367.5 -119t-375 146.5t-101.5 468.5zM266 666h670 q-4 184 -59 288q-66 125 -275 125q-102 0 -171 -32.5t-103 -96.5q-57 -106 -62 -284z" />
<glyph unicode="f" horiz-adv-x="702" d="M123 1069v102h139v70q0 160 55.5 232.5t229.5 72.5h125v-102l-125 -10q-86 -8 -113.5 -47.5t-27.5 -135.5v-80h245v-102h-245v-967h163v-102h-430v102h123v967h-139z" />
<glyph unicode="g" d="M102 -213q0 133 119 229q-112 47 -112 168q0 102 90 193l88 84q-106 90 -107 327q0 242 109 330q104 82 289.5 82t287.5 -51l146 145l86 -86l-137 -137q65 -89 65 -277v-6q0 -240 -108 -329q-103 -82 -328 -82q-121 0 -213 33l-98 -95q-53 -51 -54 -118q0 -88 109 -88 h469q145 0 224 -70t79 -203q0 -92 -32 -156.5t-75 -97.5t-121.5 -51t-138 -21.5t-168 -3.5t-184.5 9.5t-145 38.5q-139 53 -140 233zM227 -205q0 -119 105 -151q88 -29 277.5 -29t276.5 38t87 181q0 166 -211 166h-440q-94 -78 -95 -205zM319 788.5q0 -155.5 54.5 -229.5 t229.5 -74t229.5 74t54.5 229.5t-54.5 229.5t-229.5 74t-229.5 -74t-54.5 -229.5z" />
<glyph unicode="h" horiz-adv-x="1394" d="M123 0v102h123v1332h-123v102h266v-485q204 150 402 150l1 -1q198 0 277.5 -89t79.5 -277v-732h123v-102h-389v102h123v734q0 129 -50.5 186t-167.5 57q-209 0 -399 -151v-826h123v-102h-389z" />
<glyph unicode="i" horiz-adv-x="655" d="M143 0v102h123v967h-123v102h267v-1069h122v-102h-389zM250 1486q0 34 4 53.5t24.5 37.5t69.5 18t65.5 -28.5t16.5 -71.5t-4 -62.5t-25.5 -38t-61.5 -18.5t-60.5 18.5t-24.5 38t-4 53.5z" />
<glyph unicode="j" horiz-adv-x="634" d="M-20 -352l124 10q86 8 114 47t28 135v1229h-123v102h266v-1331q0 -160 -55 -232.5t-230 -72.5h-124v113zM250 1486q0 34 4 53.5t24.5 37.5t69.5 18t65.5 -28.5t16.5 -71.5t-4 -62.5t-25.5 -38t-61.5 -18.5t-60.5 18.5t-24.5 38t-4 53.5z" />
<glyph unicode="k" horiz-adv-x="1220" d="M123 0v102h123v1332h-123v102h266v-848h184l267 381h-107v102h389v-102h-123l-317 -448l356 -519h121v-102h-389v102h109l-326 476h-164v-476h123v-102h-389z" />
<glyph unicode="l" horiz-adv-x="634" d="M123 0v102h123v1332h-123v102h266v-1434h123v-102h-389z" />
<glyph unicode="m" horiz-adv-x="2093" d="M143 0v102h123v967h-123v102h219l33 -127q172 156 397.5 156t301.5 -170q72 72 183.5 121t225.5 49q344 0 344 -364v-734h123v-102h-389v102h123v734q0 243 -217 243h-2q-199 0 -363 -151q6 -43 6 -92v-734h123v-102h-389v102h123v734q0 243 -217 243h-2 q-197 0 -356 -147v-830h122v-102h-389z" />
<glyph unicode="n" horiz-adv-x="1415" d="M143 0v102h123v967h-123v102h219l35 -131q207 160 434 160q180 0 259 -89t79 -277v-732h123v-102h-389v102h123v734q0 129 -50 186t-167 57q-209 0 -399 -151v-826h122v-102h-389z" />
<glyph unicode="o" horiz-adv-x="1245" d="M123 586q0 76 4 134t16.5 124.5t34 116t59 96.5t90 76.5t127 48t169 18.5t169 -18.5t127 -48t90.5 -76.5t59.5 -96.5t33.5 -116t16 -124.5t4 -134t-4 -134.5t-16 -125t-33.5 -115.5t-59.5 -96t-90.5 -77t-127 -48.5t-169 -18.5t-169 18.5t-127 48.5t-90 77t-59 96 t-34 115.5t-16.5 125t-4 134.5zM266 586q0 -88 4 -146.5t24.5 -131t56.5 -114.5t104.5 -72t167 -30t167 30t104.5 72t56.5 114.5t24.5 131t4 146.5t-4 146.5t-24.5 131t-56.5 114.5t-104.5 71.5t-167 29.5t-167 -29.5t-104.5 -71.5t-56.5 -114.5t-24.5 -131t-4 -146.5z" />
<glyph unicode="p" horiz-adv-x="1343" d="M123 -362h123v1431h-123v102h219l29 -110q186 139 389 139q297 0 379 -262q27 -86 34 -165t7 -187.5t-7.5 -187.5t-35 -165t-74.5 -139t-132 -88t-231.5 -35t-310.5 72v-405h164v-103h-430v103zM389 158q143 -66 320 -66q242 0 299 203q29 102 29 228q0 125 -5 185 q-4 52 -14 112.5t-31.5 104.5t-54.5 81q-66 73 -203 73q-182 0 -340 -121v-800z" />
<glyph unicode="q" horiz-adv-x="1325" d="M164 585.5q0 108.5 7 187.5t34.5 165t75 139t132.5 88t201 35q205 0 363 -119l24 90h220v-102h-123v-1431h123v-103h-430v103h163v415q-182 -82 -319 -82t-222 35t-132.5 88t-75 139t-34.5 165t-7 187.5zM307 617.5q0 -150.5 11.5 -231.5t46.5 -153q65 -141 270 -141 q166 0 319 80v805q-131 102 -319 102q-231 0 -293 -198q-35 -113 -35 -263.5z" />
<glyph unicode="r" horiz-adv-x="858" d="M143 0v102h123v967h-123v102h219l46 -225q143 244 430 254v-137q-289 -10 -428 -266v-695h163v-102h-430z" />
<glyph unicode="s" horiz-adv-x="1163" d="M150 872.5q0 149.5 97 238.5t288 89q244 0 337 -147l-2 118h105v-413h-94q-16 203 -99 266q-45 33 -100 44t-163.5 11t-167 -55t-58.5 -142t48 -131t169 -75l160 -43q188 -51 269 -120t81 -214q0 -328 -404 -328q-256 0 -362 181l4 -152h-104v414h94q35 -322 350 -322 q279 0 279 207q0 74 -47.5 119t-165.5 76l-160 43q-190 49 -272 117.5t-82 218z" />
<glyph unicode="t" horiz-adv-x="757" d="M72 1069v102h184v234l143 29v-263h215v-102h-215v-813q0 -94 26 -133t76 -39t122 16l18 -100q-102 -29 -166.5 -29t-104.5 16.5t-61.5 41t-34.5 65.5q-18 61 -18 162v813h-184z" />
<glyph unicode="u" horiz-adv-x="1425" d="M123 1069v102h266v-835q0 -131 52.5 -187.5t181.5 -56.5q219 0 413 178v799h-123v102h267v-1069h123v-102h-220l-41 150q-215 -178 -450 -179q-193 0 -269.5 86t-76.5 277v735h-123z" />
<glyph unicode="v" horiz-adv-x="1171" d="M20 1069v102h340v-102h-116l342 -911l340 911h-115v102h340v-102h-80l-407 -1069h-156l-408 1069h-80z" />
<glyph unicode="w" horiz-adv-x="1609" d="M20 1069v102h340v-102h-124l251 -891l256 891h121l258 -891l252 891h-125v102h340v-102h-71l-308 -1069h-157l-248 856l-248 -856h-158l-309 1069h-70z" />
<glyph unicode="x" horiz-adv-x="1165" d="M51 0v102h86l361 510l-320 457h-96v102h360v-102h-102l250 -356l248 356h-115v102h360v-102h-88l-327 -467l350 -500h96v-102h-360v102h102l-281 402l-280 -402h117v-102h-361z" />
<glyph unicode="y" horiz-adv-x="1171" d="M20 1069v102h340v-102h-116l342 -913l340 913h-115v102h340v-102h-80l-532 -1401q-27 -70 -57.5 -101.5t-94.5 -31.5h-184v103l121 10q51 4 67.5 18.5t32.5 54.5l94 252l-418 1096h-80z" />
<glyph unicode="z" horiz-adv-x="1097" d="M82 0v102l729 955h-578v-226h-102v340h856v-102l-729 -954h635v225h102v-340h-913z" />
<glyph unicode="{" horiz-adv-x="602" d="M43 635v102q57 0 105.5 22.5t48.5 78.5l-17 254q0 416 412 415v-127q-143 0 -201.5 -79t-58.5 -224l16 -250q0 -61 -29.5 -98t-70.5 -37v-12q41 0 70.5 -37t29.5 -98l-16 -250q0 -145 58.5 -224t201.5 -79v-127q-412 0 -412 416l17 254q0 55 -48.5 77.5t-105.5 22.5z" />
<glyph unicode="|" horiz-adv-x="657" d="M246 -217v1804h166v-1804h-166z" />
<glyph unicode="}" horiz-adv-x="602" d="M10 -8q143 0 201.5 79t58.5 224l-16 250q0 61 29.5 98t70.5 37v12q-41 0 -70.5 37t-29.5 98l16 250q0 145 -58 224t-202 79v127q412 0 412 -415l-16 -254q0 -55 48 -78t105 -23v-102q-57 0 -105 -22.5t-48 -77.5l16 -254q0 -416 -412 -416v127z" />
<glyph unicode="~" d="M193 590v123q70 -49 156.5 -49t243.5 44t242 44t160 -39v-123q-78 43 -161.5 43t-240.5 -44t-241 -44t-159 45z" />
<glyph unicode="&#xa1;" horiz-adv-x="647" d="M225 1066q0 40 3 57.5t14 35.5q18 41 99 41t81 -119q0 -37 -4 -58.5t-26.5 -41.5t-76 -20t-72 32.5t-18.5 72.5zM244 12l37 793h90l37 -793v-323h-164v323z" />
<glyph unicode="&#xa2;" d="M172 631.5q0 154.5 7 229.5t33 157t69 135t121.5 93t187.5 50v228h102v-224q193 -6 275 -108t96 -279l-129 -10q-6 123 -58.5 191.5t-183.5 74.5v-966q141 10 196.5 67.5t59.5 167.5l129 -10q-14 -164 -99 -253t-286 -101v-226h-102v224q-109 6 -187.5 44t-122.5 91 t-69 137q-39 133 -39 287.5zM315.5 711q-0.5 -131 7 -198t31.5 -142q49 -150 236 -166v958q-207 -29 -254 -229q-20 -92 -20.5 -223z" />
<glyph unicode="&#xa3;" d="M131 586v123h135v292q0 199 89 299.5t299 100.5t304.5 -108.5t94.5 -319.5h-148q0 147 -57 224t-194.5 77t-185.5 -65.5t-48 -207.5v-292h483v-123h-483v-230q0 -84 -18.5 -131t-63.5 -94h749v-131h-919v115q98 86 98 221v250h-135z" />
<glyph unicode="&#xa4;" d="M80 244l168 168q-51 90 -51 273t55 271l-172 172l72 72l170 -170q104 74 285 74t272 -62l157 158l72 -72l-158 -157q61 -90 61.5 -280.5t-65.5 -287.5l162 -159l-72 -72l-162 162q-102 -66 -283 -66t-274 70l-165 -166zM326 686q0 -68 6 -109.5t29.5 -90t80 -72 t141.5 -23.5t142 17.5t88 43t47 68.5q23 59 23 146.5t-6.5 129.5t-28.5 89q-49 94 -227 94q-201 0 -254 -94q-27 -47 -34 -89t-7 -110z" />
<glyph unicode="&#xa5;" d="M100 1372h156l338 -670l338 670h155l-282 -541h227v-122h-291l-63 -123h354v-123h-364v-463h-148v463h-362v123h352l-66 123h-286v122h223z" />
<glyph unicode="&#xa6;" horiz-adv-x="657" d="M246 -217v676h166v-676h-166zM246 911v676h166v-676h-166z" />
<glyph unicode="&#xa7;" horiz-adv-x="1179" d="M111 592q0 127 61 227q-61 90 -61 273q0 432 469 432q225 0 330.5 -99.5t127.5 -300.5l-120 -8q-16 141 -93 213t-254.5 72t-245 -76t-67.5 -222.5t49 -209t197 -62.5h182q217 0 309 -100t92 -303q0 -131 -61 -235q61 -94 61 -285t-108.5 -296.5t-380.5 -105.5 q-227 0 -344 125t-117 346h131q12 -348 330 -348q188 0 265 70t77 214t-57.5 212t-200.5 68h-184q-215 0 -301 97t-86 302zM258 567.5q0 -110.5 49 -173t197 -62.5h182q145 0 236 -47q18 51 18 123q0 150 -57.5 217t-200.5 67h-184q-143 0 -224 41q-16 -55 -16 -165.5z" />
<glyph unicode="&#xa8;" horiz-adv-x="630" d="M10 1486q0 34 4 53.5t24.5 37.5t70 18t65.5 -28.5t16 -71.5t-4 -62.5t-25.5 -38t-61.5 -18.5t-60.5 18.5t-24.5 38t-4 53.5zM440 1486q0 34 4.5 53.5t24.5 37.5t69.5 18t66 -28.5t16.5 -71.5t-4.5 -62.5t-26 -38t-61.5 -18.5t-60 18.5t-24.5 38t-4.5 53.5z" />
<glyph unicode="&#xa9;" horiz-adv-x="1488" d="M143 1146.5q0 323.5 138.5 463t462 139.5t463 -139.5t139.5 -463t-139.5 -461.5t-463 -138t-462 138t-138.5 461.5zM242 1146.5q0 -280.5 110.5 -396t391 -115.5t392 116.5t111.5 396t-111.5 396.5t-391 117t-391 -117t-111.5 -397.5zM424 1147q0 223 65.5 325.5 t251.5 102.5q131 0 190.5 -57.5t72.5 -174.5l-89 -6q-8 78 -48 115t-126 37q-127 0 -169 -81t-42 -262t40 -259t173 -78q170 0 177 182l86 -4q-8 -131 -65.5 -198.5t-197.5 -67.5q-195 0 -257 101.5t-62 324.5z" />
<glyph unicode="&#xaa;" horiz-adv-x="874" d="M82 932q0 119 52 175t202 67l244 16v131q0 131 -164 131q-109 0 -149 -39t-44 -121l-106 6q10 129 73.5 193.5t229.5 64.5q291 0 291 -229v-522h86v-88h-172l-25 86q-127 -106 -267 -106.5t-195.5 58t-55.5 177.5zM96 524v88h701v-88h-701zM211 938q0 -76 31.5 -107.5 t109.5 -31.5q127 0 228 94v203l-224 -15q-84 -4 -114.5 -35.5t-30.5 -107.5z" />
<glyph unicode="&#xab;" horiz-adv-x="1064" d="M61 612v66l345 383l94 -94l-252 -322l252 -321l-94 -95zM502 612v66l344 383l96 -94l-254 -322l254 -321l-96 -95z" />
<glyph unicode="&#xac;" d="M193 590v123h802v-406h-114v283h-688z" />
<glyph unicode="&#xad;" horiz-adv-x="1007" d="M143 590v123h721v-123h-721z" />
<glyph unicode="&#xae;" horiz-adv-x="1488" d="M143 1146.5q0 323.5 138.5 463t462 139.5t463 -139.5t139.5 -463t-139.5 -461.5t-463 -138t-462 138t-138.5 461.5zM242 1146.5q0 -280.5 110.5 -396t391 -115.5t392 116.5t111.5 396t-111.5 396.5t-391 117t-391 -117t-111.5 -397.5zM504 737v824h252q156 0 205 -64.5 t49 -167t-28 -159t-110 -80.5q29 -27 50 -72l122 -281h-114l-115 267q-31 72 -110 71h-95v-338h-106zM610 1159h144q92 0 120.5 40t28.5 118t-28.5 118t-120.5 40h-144v-316z" />
<glyph unicode="&#xaf;" horiz-adv-x="724" d="M102 1421v133h521v-133h-521z" />
<glyph unicode="&#xb0;" horiz-adv-x="870" d="M98 1076q0 85 10.5 143.5t43 117t103.5 88t179.5 29.5t180 -29.5t104.5 -88t43 -117t10 -143.5t-10 -143.5t-43 -117.5t-104.5 -89t-180 -30t-179.5 30t-103.5 89t-43 117.5t-10.5 143.5zM227 1075.5q0 -65.5 5.5 -104.5t23.5 -83t63.5 -65.5t115 -21.5t114.5 21.5 t63.5 65.5t23.5 83t5 104.5t-5 104.5t-23.5 83t-63.5 65.5t-114.5 21.5t-115 -21.5t-63.5 -65.5t-23.5 -83t-5.5 -104.5z" />
<glyph unicode="&#xb1;" d="M193 0v123h802v-123h-802zM193 692v123h339v340h123v-340h340v-123h-340v-340h-123v340h-339z" />
<glyph unicode="&#xb2;" horiz-adv-x="847" d="M150 696v86l315 342q41 45 59 68q51 63 51 127q0 133 -153 133q-92 0 -126 -39t-34 -119h-98q0 123 59.5 186.5t202.5 63.5q260 0 260 -225q0 -115 -139 -266l-244 -265h393v-92h-546z" />
<glyph unicode="&#xb3;" horiz-adv-x="847" d="M147 928h99q0 -158 176 -158t176 139q0 156 -168 156h-123v86h125q76 0 115 41t39 111q0 150 -162 149.5t-162 -158.5h-98q0 123 60.5 186.5t201.5 63.5q272 0 272 -244q0 -129 -127 -188q140 -51 140 -205q0 -109 -72 -168t-219.5 -59t-210 61.5t-62.5 186.5z" />
<glyph unicode="&#xb4;" horiz-adv-x="643" d="M102 1364l330 330l109 -109l-353 -307z" />
<glyph unicode="&#xb5;" horiz-adv-x="1312" d="M174 -465v1636h143v-526q0 -236 24 -329t58.5 -132t94 -62.5t145.5 -23.5t145.5 23.5t95 62.5t54.5 111q31 123 31 350v526h143v-505q0 -342 -49 -461q-51 -127 -137 -174q-111 -59 -270.5 -59.5t-249 33.5t-140.5 147l-12 -7l49 -145v-465h-125z" />
<glyph unicode="&#xb6;" horiz-adv-x="1001" d="M61 978q0 89 12.5 149.5t51.5 121.5q78 123 336 123h397v-102h-123v-1168h123v-102h-434v102h164v482h-127q-258 0 -336 123q-39 61 -51.5 121.5t-12.5 149.5z" />
<glyph unicode="&#xb7;" horiz-adv-x="462" d="M133 645q0 37 4 58.5t26.5 42t76 20.5t72 -33t18.5 -72.5t-3 -57t-12 -38.5q-20 -39 -101 -39t-81 119z" />
<glyph unicode="&#xb8;" horiz-adv-x="612" d="M102 -299h103q0 -45 21.5 -68.5t78.5 -23.5t80 23.5t23 70.5q0 82 -107 100l-108 21v74h120q92 0 144.5 -43t52.5 -146.5t-44 -153t-160 -49.5t-160 49.5t-44 145.5z" />
<glyph unicode="&#xb9;" horiz-adv-x="847" d="M221 696v92h170v607h-168v69q129 12 197 62h86v-738h170v-92h-455z" />
<glyph unicode="&#xba;" horiz-adv-x="870" d="M78 1099q0 124 11 190.5t46 131.5q68 135 299 135t301 -135q35 -66 46.5 -131t11.5 -162.5t-11.5 -164t-46.5 -133t-109.5 -100.5t-180 -34t-172 24.5t-103.5 62.5t-59 98q-33 94 -33 218zM98 524v88h672v-88h-672zM207 1153q0 -88 3 -127t15.5 -86t36 -74.5t67.5 -46 t106.5 -18.5t106.5 19.5t66.5 46t34.5 74.5t15.5 86t3.5 99.5t-3.5 99.5t-15.5 86t-35 74q-55 66 -174 66q-172 0 -209 -139q-18 -72 -18 -160z" />
<glyph unicode="&#xbb;" horiz-adv-x="1064" d="M123 324l254 321l-254 322l96 94l344 -383v-66l-344 -383zM565 324l252 321l-252 322l94 94l345 -383v-66l-345 -383z" />
<glyph unicode="&#xbc;" horiz-adv-x="2011" d="M236 555v92h170v606h-168v70q129 12 196 61h86v-737h170v-92h-454zM754 -135l438 1640h108l-440 -1640h-106zM1239 174v88l346 567h174v-563h99v-92h-99v-174h-110v174h-410zM1366 266h283v465z" />
<glyph unicode="&#xbd;" horiz-adv-x="2011" d="M236 555v92h170v606h-168v70q129 12 196 61h86v-737h170v-92h-454zM713 -135l438 1640h109l-441 -1640h-106zM1294 0v86l316 342q41 45 57 68q53 63 53 127q0 133 -153 133q-92 0 -126 -39t-34 -119h-98q0 123 59 186.5t203 63.5q260 0 260 -225q0 -115 -139 -267 l-244 -264h393v-92h-547z" />
<glyph unicode="&#xbe;" horiz-adv-x="2011" d="M164 786h98q0 -158 176 -157.5t176 139.5q0 156 -168 156h-122v86h125q76 0 114.5 41t38.5 112q0 147 -161.5 147.5t-161.5 -157.5h-99q0 123 60.5 186.5t201.5 63.5q272 0 273 -244q0 -129 -127 -188q139 -53 139 -205q0 -109 -71.5 -168t-219 -59t-210 61.5 t-62.5 185.5zM764 -135l438 1640h109l-441 -1640h-106zM1239 174v88l346 567h174v-563h99v-92h-99v-174h-110v174h-410zM1366 266h283v465z" />
<glyph unicode="&#xbf;" horiz-adv-x="991" d="M86 89q0 212 89 298t278 115l32 4l23 299h94l14 -389l-104 -13q-139 -16 -213 -81.5t-74 -224t65.5 -237.5t233.5 -79q279 0 279 231h123q0 -172 -95.5 -262t-319.5 -90t-324.5 108.5t-100.5 320.5zM457 1066q0 40 3 57.5t11 35.5q20 41 101 41t81 -119q0 -37 -4 -58.5 t-26.5 -41.5t-75.5 -20t-71.5 32.5t-18.5 72.5z" />
<glyph unicode="&#xc0;" horiz-adv-x="1337" d="M10 0v102h94l465 1393h199l463 -1393h96v-102h-364v102h120l-125 381h-581l-125 -381h123v-102h-365zM418 604h502l-252 762zM449 1909l108 108l330 -329l-86 -86z" />
<glyph unicode="&#xc1;" horiz-adv-x="1337" d="M10 0v102h94l465 1393h199l463 -1393h96v-102h-364v102h120l-125 381h-581l-125 -381h123v-102h-365zM418 604h502l-252 762zM449 1688l329 329l109 -108l-352 -307z" />
<glyph unicode="&#xc2;" horiz-adv-x="1337" d="M10 0v102h94l465 1393h199l463 -1393h96v-102h-364v102h120l-125 381h-581l-125 -381h123v-102h-365zM360 1688l279 317h59l279 -317l-86 -86l-223 225l-222 -225zM418 604h502l-252 762z" />
<glyph unicode="&#xc3;" horiz-adv-x="1337" d="M10 0v102h94l465 1393h199l463 -1393h96v-102h-364v102h120l-125 381h-581l-125 -381h123v-102h-365zM338 1726q55 190 180 191q51 0 153.5 -37t134.5 -37t52.5 20.5t36.5 69.5l102 -32q-55 -191 -180 -191q-51 0 -151.5 37t-133 37t-53 -20.5t-37.5 -69.5zM418 604h502 l-252 762z" />
<glyph unicode="&#xc4;" horiz-adv-x="1337" d="M10 0v102h94l465 1393h199l463 -1393h96v-102h-364v102h120l-125 381h-581l-125 -381h123v-102h-365zM362 1809.5q0 33.5 4.5 53t25 38t69.5 18.5t65.5 -28.5t16.5 -71.5t-4 -62.5t-25.5 -38t-61.5 -18.5t-60.5 18.5t-25 38t-4.5 53zM418 604h502l-252 762zM793 1809.5 q0 33.5 4 53t24.5 38t69.5 18.5t65.5 -28.5t16.5 -71.5t-4 -62.5t-25.5 -38t-61.5 -18.5t-60.5 18.5t-24.5 38t-4 53z" />
<glyph unicode="&#xc5;" horiz-adv-x="1337" d="M10 0v102h94l465 1393h199l463 -1393h96v-102h-364v102h120l-125 381h-581l-125 -381h123v-102h-365zM418 604h502l-252 762zM473 1808q0 43 5 72t22.5 62.5t58.5 50t106.5 16.5t108.5 -16.5t60.5 -50t22.5 -62.5t5 -72t-5 -71.5t-22.5 -61.5t-60.5 -49t-108.5 -16 t-106.5 16t-58.5 49t-22.5 61.5t-5 71.5zM580 1819q0 -43 4 -63.5t23.5 -39t59.5 -18.5t60.5 18.5t24.5 39t4 54t-4 53t-24.5 39t-69 19.5t-63.5 -29.5t-15 -72.5z" />
<glyph unicode="&#xc6;" horiz-adv-x="1931" d="M10 0v102h101l540 1393h1116v-324h-114v203h-578v-553h590v-123h-590v-577h619v203h114v-324h-1003v102h123v596h-443l-227 -596h117v-102h-365zM532 821h396v553h-183z" />
<glyph unicode="&#xc7;" horiz-adv-x="1298" d="M153.5 720q0.5 228 20 357t75.5 237.5t166.5 159t282.5 50.5q268 0 373 -181v152h111v-442h-111q-12 170 -95 259t-278 89q-201 0 -292 -111q-80 -94 -99 -319q-6 -88 -6 -227.5t5 -221.5t27.5 -176t65.5 -141q100 -111 303 -111t278 90t81 250l121 -6 q-8 -111 -31 -187.5t-72 -142.5q-98 -127 -360 -127q-258 0 -375 95q-61 51 -100 111.5t-60 156.5q-31 158 -30.5 386zM440 -299h103q0 -45 21.5 -68.5t78.5 -23.5t79.5 23.5t22.5 70.5q0 82 -106 100l-109 21v74h121q92 0 144.5 -43t52.5 -146.5t-44 -153t-160 -49.5 t-160 49.5t-44 145.5z" />
<glyph unicode="&#xc8;" horiz-adv-x="1269" d="M143 0v102h123v1291h-123v102h963v-324h-115v203h-577v-553h590v-123h-590v-577h618v203h115v-324h-1004zM399 1909l109 108l330 -329l-86 -86z" />
<glyph unicode="&#xc9;" horiz-adv-x="1269" d="M143 0v102h123v1291h-123v102h963v-324h-115v203h-577v-553h590v-123h-590v-577h618v203h115v-324h-1004zM399 1688l330 329l109 -108l-353 -307z" />
<glyph unicode="&#xca;" horiz-adv-x="1269" d="M143 0v102h123v1291h-123v102h963v-324h-115v203h-577v-553h590v-123h-590v-577h618v203h115v-324h-1004zM311 1688l279 317h59l279 -317l-86 -86l-224 225l-221 -225z" />
<glyph unicode="&#xcb;" horiz-adv-x="1269" d="M143 0v102h123v1291h-123v102h963v-324h-115v203h-577v-553h590v-123h-590v-577h618v203h115v-324h-1004zM313 1809.5q0 33.5 4.5 53t24.5 38t69.5 18.5t66 -28.5t16.5 -71.5t-4.5 -62.5t-26 -38t-61.5 -18.5t-60 18.5t-24.5 38t-4.5 53zM743 1809.5q0 33.5 4.5 53t25 38 t69.5 18.5t65.5 -28.5t16.5 -71.5t-4.5 -62.5t-26 -38t-61 -18.5t-60 18.5t-25 38t-4.5 53z" />
<glyph unicode="&#xcc;" horiz-adv-x="720" d="M141 1909l109 108l330 -329l-86 -86zM143 0v102h144v1291h-144v102h435v-102h-144v-1291h144v-102h-435z" />
<glyph unicode="&#xcd;" horiz-adv-x="720" d="M143 0v102h144v1291h-144v102h435v-102h-144v-1291h144v-102h-435zM182 1688l330 329l109 -108l-353 -307z" />
<glyph unicode="&#xce;" horiz-adv-x="720" d="M53 1688l279 317h59l279 -317l-86 -86l-224 225l-221 -225zM143 0v102h144v1291h-144v102h435v-102h-144v-1291h144v-102h-435z" />
<glyph unicode="&#xcf;" horiz-adv-x="720" d="M55 1809.5q0 33.5 4 53t24.5 38t70 18.5t66 -28.5t16.5 -71.5t-4.5 -62.5t-26 -38t-61.5 -18.5t-60.5 18.5t-24.5 38t-4 53zM143 0v102h144v1291h-144v102h435v-102h-144v-1291h144v-102h-435zM485 1809.5q0 33.5 4.5 53t25 38t69.5 18.5t65.5 -28.5t16.5 -71.5 t-4.5 -62.5t-26 -38t-61 -18.5t-60 18.5t-25 38t-4.5 53z" />
<glyph unicode="&#xd0;" horiz-adv-x="1409" d="M143 0v115h123v571h-123v123h123v571h-123v115h564q264 0 383 -92q63 -49 102 -107.5t59 -148.5q35 -156 35 -355.5t-10 -303t-44 -204t-97 -157.5q-137 -127 -428 -127h-564zM414 127h293q141 0 230 40t132 129t56.5 188.5t13.5 263t-13.5 263t-56.5 188.5t-132 129 t-230 40h-293v-559h450v-123h-450v-559z" />
<glyph unicode="&#xd1;" horiz-adv-x="1576" d="M143 0v102h123v1291h-123v102h287l754 -1251v1149h-123v102h393v-102h-123v-1393h-164l-753 1249v-1147h123v-102h-394zM479 1726q55 190 180 191q53 0 153.5 -37t133.5 -37t53.5 20.5t36.5 69.5l103 -32q-56 -191 -181 -191q-53 0 -153 37t-132 37t-52.5 -20.5 t-36.5 -69.5z" />
<glyph unicode="&#xd2;" horiz-adv-x="1443" d="M154 746.5q0 162.5 9 268t43 211t94 165t164.5 96.5t256 37t256 -37t166 -96.5t94.5 -164t43 -211t10 -268t-10 -269t-43 -212t-94.5 -164t-166 -95.5t-256 -36t-256 36t-164.5 95.5t-94 165t-43 211t-9 268zM301 747.5q0 -135.5 7 -224.5t32 -178t70 -139t122.5 -81 t188 -31t188.5 31t124 81t70.5 139t32 178t7.5 224.5t-7.5 224.5t-32 178t-70.5 139t-124 81t-188.5 31t-188 -31t-122.5 -81t-70 -139t-32 -178t-7 -224.5zM502 1909l108 108l330 -329l-86 -86z" />
<glyph unicode="&#xd3;" horiz-adv-x="1443" d="M154 746.5q0 162.5 9 268t43 211t94 165t164.5 96.5t256 37t256 -37t166 -96.5t94.5 -164t43 -211t10 -268t-10 -269t-43 -212t-94.5 -164t-166 -95.5t-256 -36t-256 36t-164.5 95.5t-94 165t-43 211t-9 268zM301 747.5q0 -135.5 7 -224.5t32 -178t70 -139t122.5 -81 t188 -31t188.5 31t124 81t70.5 139t32 178t7.5 224.5t-7.5 224.5t-32 178t-70.5 139t-124 81t-188.5 31t-188 -31t-122.5 -81t-70 -139t-32 -178t-7 -224.5zM502 1688l329 329l109 -108l-352 -307z" />
<glyph unicode="&#xd4;" horiz-adv-x="1443" d="M154 746.5q0 162.5 9 268t43 211t94 165t164.5 96.5t256 37t256 -37t166 -96.5t94.5 -164t43 -211t10 -268t-10 -269t-43 -212t-94.5 -164t-166 -95.5t-256 -36t-256 36t-164.5 95.5t-94 165t-43 211t-9 268zM301 747.5q0 -135.5 7 -224.5t32 -178t70 -139t122.5 -81 t188 -31t188.5 31t124 81t70.5 139t32 178t7.5 224.5t-7.5 224.5t-32 178t-70.5 139t-124 81t-188.5 31t-188 -31t-122.5 -81t-70 -139t-32 -178t-7 -224.5zM414 1688l278 317h60l278 -317l-86 -86l-223 225l-221 -225z" />
<glyph unicode="&#xd5;" horiz-adv-x="1443" d="M154 746.5q0 162.5 9 268t43 211t94 165t164.5 96.5t256 37t256 -37t166 -96.5t94.5 -164t43 -211t10 -268t-10 -269t-43 -212t-94.5 -164t-166 -95.5t-256 -36t-256 36t-164.5 95.5t-94 165t-43 211t-9 268zM301 747.5q0 -135.5 7 -224.5t32 -178t70 -139t122.5 -81 t188 -31t188.5 31t124 81t70.5 139t32 178t7.5 224.5t-7.5 224.5t-32 178t-70.5 139t-124 81t-188.5 31t-188 -31t-122.5 -81t-70 -139t-32 -178t-7 -224.5zM391 1726q55 190 180 191q51 0 152.5 -37t134.5 -37t53.5 20.5t36.5 69.5l103 -32q-56 -191 -181 -191 q-51 0 -151.5 37t-133 37t-53 -20.5t-36.5 -69.5z" />
<glyph unicode="&#xd6;" horiz-adv-x="1443" d="M154 746.5q0 162.5 9 268t43 211t94 165t164.5 96.5t256 37t256 -37t166 -96.5t94.5 -164t43 -211t10 -268t-10 -269t-43 -212t-94.5 -164t-166 -95.5t-256 -36t-256 36t-164.5 95.5t-94 165t-43 211t-9 268zM301 747.5q0 -135.5 7 -224.5t32 -178t70 -139t122.5 -81 t188 -31t188.5 31t124 81t70.5 139t32 178t7.5 224.5t-7.5 224.5t-32 178t-70.5 139t-124 81t-188.5 31t-188 -31t-122.5 -81t-70 -139t-32 -178t-7 -224.5zM416 1809.5q0 33.5 4 53t24.5 38t69.5 18.5t65.5 -28.5t16.5 -71.5t-4 -62.5t-25.5 -38t-61.5 -18.5t-60.5 18.5 t-24.5 38t-4 53zM846 1809.5q0 33.5 4 53t24.5 38t69.5 18.5t65.5 -28.5t16.5 -71.5t-4 -62.5t-25.5 -38t-61.5 -18.5t-60.5 18.5t-24.5 38t-4 53z" />
<glyph unicode="&#xd7;" d="M231 375l277 276l-277 277l86 86l277 -277l276 277l86 -86l-276 -277l276 -276l-86 -86l-276 276l-277 -276z" />
<glyph unicode="&#xd8;" horiz-adv-x="1382" d="M123 743.5q0 165.5 9 271t43 211t95 165.5q135 133 420 133q47 0 125 -8l41 178h109l-47 -197q172 -47 251 -182q70 -117 84 -344q6 -92 6.5 -238.5t-10 -254t-43 -212t-94.5 -164.5q-135 -131 -422 -131q-49 0 -127 9l-39 -173h-106l43 191q-111 29 -179.5 91.5 t-102.5 166.5t-45 213t-11 274.5zM270 742.5q0 -267.5 43 -414t179 -201.5l294 1268q-45 6 -125.5 6t-158.5 -31t-123 -81t-70 -138q-39 -141 -39 -408.5zM592 100q47 -6 128 -6t158.5 31t124 81t70.5 138q39 141 39 408.5t-43 414t-180 201.5z" />
<glyph unicode="&#xd9;" horiz-adv-x="1536" d="M113 1393v102h393v-102h-123v-899q0 -256 121 -334q57 -37 117.5 -50.5t145.5 -13.5t145.5 13.5t119.5 50.5q121 78 121 334v899h-123v102h393v-102h-123v-899q0 -262 -108 -388q-45 -55 -120 -86.5t-143.5 -40t-162.5 -8.5t-161.5 8.5t-141.5 40t-119 86.5 q-109 125 -108 388v899h-123zM487 1909l109 108l330 -329l-86 -86z" />
<glyph unicode="&#xda;" horiz-adv-x="1536" d="M113 1393v102h393v-102h-123v-899q0 -256 121 -334q57 -37 117.5 -50.5t145.5 -13.5t145.5 13.5t119.5 50.5q121 78 121 334v899h-123v102h393v-102h-123v-899q0 -262 -108 -388q-45 -55 -120 -86.5t-143.5 -40t-162.5 -8.5t-161.5 8.5t-141.5 40t-119 86.5 q-109 125 -108 388v899h-123zM651 1688l330 329l109 -108l-353 -307z" />
<glyph unicode="&#xdb;" horiz-adv-x="1536" d="M113 1393v102h393v-102h-123v-899q0 -256 121 -334q57 -37 117.5 -50.5t145.5 -13.5t145.5 13.5t119.5 50.5q121 78 121 334v899h-123v102h393v-102h-123v-899q0 -262 -108 -388q-45 -55 -120 -86.5t-143.5 -40t-162.5 -8.5t-161.5 8.5t-141.5 40t-119 86.5 q-109 125 -108 388v899h-123zM459 1688l278 317h60l278 -317l-86 -86l-223 225l-221 -225z" />
<glyph unicode="&#xdc;" horiz-adv-x="1536" d="M113 1393v102h393v-102h-123v-899q0 -256 121 -334q57 -37 117.5 -50.5t145.5 -13.5t145.5 13.5t119.5 50.5q121 78 121 334v899h-123v102h393v-102h-123v-899q0 -262 -108 -388q-45 -55 -120 -86.5t-143.5 -40t-162.5 -8.5t-161.5 8.5t-141.5 40t-119 86.5 q-109 125 -108 388v899h-123zM463 1809.5q0 33.5 4 53t24.5 38t69.5 18.5t65.5 -28.5t16.5 -71.5t-4 -62.5t-25.5 -38t-61.5 -18.5t-60.5 18.5t-24.5 38t-4 53zM893 1809.5q0 33.5 4 53t24.5 38t69.5 18.5t65.5 -28.5t16.5 -71.5t-4 -62.5t-25.5 -38t-61.5 -18.5t-60.5 18.5 t-24.5 38t-4 53z" />
<glyph unicode="&#xdd;" horiz-adv-x="1007" d="M-51 1380v115h373v-115h-127l309 -700l307 700h-125v115h373v-115h-94l-387 -858v-407h143v-115h-434v115h143v407l-389 858h-92zM285 1688l329 329l109 -108l-352 -307z" />
<glyph unicode="&#xde;" horiz-adv-x="1226" d="M143 0v115h123v1265h-123v115h414v-115h-143v-168h262q289 0 377 -145q43 -72 57 -143.5t14 -165.5t-7 -153.5t-33.5 -125t-73.5 -106.5q-111 -92 -334 -92h-262v-166h143v-115h-414zM414 412h262q195 0 254 104q29 51 38 102.5t9 127t-9.5 128t-37.5 103.5 q-59 104 -254 104h-262v-669z" />
<glyph unicode="&#xdf;" horiz-adv-x="1302" d="M123 0v102h123v1047q0 188 107.5 292.5t336 104.5t331.5 -102.5t103 -294.5q0 -104 -49 -193.5t-131 -144.5q135 -25 216 -131.5t81 -276.5q0 -432 -379 -432q-207 0 -280.5 98.5t-73.5 297.5h121q0 -141 46 -208t185 -67q238 0 238 318.5t-262 318.5h-236v111h139 q117 0 179.5 92t62.5 223t-66.5 200.5t-234.5 69.5q-291 0 -291 -276v-1149h-266z" />
<glyph unicode="&#xe0;" horiz-adv-x="1253" d="M131 304q0 169 74 247t280 92l379 25v204q0 207 -262 207q-174 0 -232.5 -59t-66.5 -186l-121 6q6 88 25.5 147.5t62.5 110.5q86 102 332 102q406 0 406 -328v-770h122v-102h-219l-37 133q-180 -162 -384.5 -162t-281.5 82t-77 251zM270 309q0 -121 51.5 -171t176.5 -50 q199 0 366 160v309l-370 -22q-131 -8 -177.5 -56.5t-46.5 -169.5zM377 1585l108 109l330 -330l-86 -86z" />
<glyph unicode="&#xe1;" horiz-adv-x="1253" d="M131 304q0 169 74 247t280 92l379 25v204q0 207 -262 207q-174 0 -232.5 -59t-66.5 -186l-121 6q6 88 25.5 147.5t62.5 110.5q86 102 332 102q406 0 406 -328v-770h122v-102h-219l-37 133q-180 -162 -384.5 -162t-281.5 82t-77 251zM270 309q0 -121 51.5 -171t176.5 -50 q199 0 366 160v309l-370 -22q-131 -8 -177.5 -56.5t-46.5 -169.5zM471 1364l330 330l108 -109l-352 -307z" />
<glyph unicode="&#xe2;" horiz-adv-x="1253" d="M131 304q0 169 74 247t280 92l379 25v204q0 207 -262 207q-174 0 -232.5 -59t-66.5 -186l-121 6q6 88 25.5 147.5t62.5 110.5q86 102 332 102q406 0 406 -328v-770h122v-102h-219l-37 133q-180 -162 -384.5 -162t-281.5 82t-77 251zM270 309q0 -121 51.5 -171t176.5 -50 q199 0 366 160v309l-370 -22q-131 -8 -177.5 -56.5t-46.5 -169.5zM289 1364l278 317h60l278 -317l-86 -86l-223 225l-221 -225z" />
<glyph unicode="&#xe3;" horiz-adv-x="1253" d="M131 304q0 169 74 247t280 92l379 25v204q0 207 -262 207q-174 0 -232.5 -59t-66.5 -186l-121 6q6 88 25.5 147.5t62.5 110.5q86 102 332 102q406 0 406 -328v-770h122v-102h-219l-37 133q-180 -162 -384.5 -162t-281.5 82t-77 251zM266 1403q55 190 180 190 q53 0 153.5 -36.5t133.5 -36.5t53.5 20.5t36.5 69.5l103 -33q-56 -191 -181 -191q-53 0 -153 37t-132 37t-52.5 -20.5t-36.5 -69.5zM270 309q0 -121 51.5 -171t176.5 -50q199 0 366 160v309l-370 -22q-131 -8 -177.5 -56.5t-46.5 -169.5z" />
<glyph unicode="&#xe4;" horiz-adv-x="1253" d="M131 304q0 169 74 247t280 92l379 25v204q0 207 -262 207q-174 0 -232.5 -59t-66.5 -186l-121 6q6 88 25.5 147.5t62.5 110.5q86 102 332 102q406 0 406 -328v-770h122v-102h-219l-37 133q-180 -162 -384.5 -162t-281.5 82t-77 251zM270 309q0 -121 51.5 -171t176.5 -50 q199 0 366 160v309l-370 -22q-131 -8 -177.5 -56.5t-46.5 -169.5zM305 1486q0 34 4 53.5t24.5 37.5t70 18t65.5 -28.5t16 -71.5t-4 -62.5t-25.5 -38t-61.5 -18.5t-60.5 18.5t-24.5 38t-4 53.5zM735 1486q0 34 4 53.5t24.5 37.5t70 18t65.5 -28.5t16 -71.5t-4 -62.5 t-25.5 -38t-61.5 -18.5t-60.5 18.5t-24.5 38t-4 53.5z" />
<glyph unicode="&#xe5;" horiz-adv-x="1253" d="M131 304q0 169 74 247t280 92l379 25v204q0 207 -262 207q-174 0 -232.5 -59t-66.5 -186l-121 6q6 88 25.5 147.5t62.5 110.5q86 102 332 102q406 0 406 -328v-770h122v-102h-219l-37 133q-180 -162 -384.5 -162t-281.5 82t-77 251zM270 309q0 -121 51.5 -171t176.5 -50 q199 0 366 160v309l-370 -22q-131 -8 -177.5 -56.5t-46.5 -169.5zM401 1485q0 43 5.5 71.5t22.5 62.5t58 50.5t106.5 16.5t108.5 -16.5t60.5 -50.5t23 -62.5t5.5 -71.5t-5.5 -72t-23 -61.5t-60.5 -49t-108.5 -16.5t-106.5 16.5t-58 49t-22.5 61.5t-5.5 72zM508 1495 q0 -43 4 -63.5t23.5 -39t59.5 -18.5t60.5 18.5t24.5 39t4 54.5t-4 53.5t-24.5 38.5t-68.5 19t-63.5 -29.5t-15.5 -72.5z" />
<glyph unicode="&#xe6;" horiz-adv-x="1863" d="M131 304q0 169 74 247t280 92l338 21q8 164 37 254q-27 162 -258 161q-174 0 -232.5 -59t-66.5 -186l-121 6q6 88 25.5 147.5t62.5 110.5q86 102 336 102t340 -127q117 127 359 127q125 0 214 -35t139 -88t78.5 -139t37 -165t8.5 -187v-33h-815q2 -250 70.5 -355.5 t262 -105.5t263 70.5t82.5 206.5l118 -7q-8 -88 -28.5 -150t-67.5 -122q-94 -119 -354 -119q-307 0 -412 183q-80 -82 -192.5 -132.5t-231.5 -50.5q-193 0 -269.5 82t-76.5 251zM270 309q0 -121 51.5 -171t176.5 -50q199 0 364 158q-39 123 -39 309l-329 -20 q-131 -8 -177.5 -56.5t-46.5 -169.5zM967 666h669q-4 184 -59 288q-65 125 -274 125q-102 0 -171 -32.5t-104 -96.5q-57 -106 -61 -284z" />
<glyph unicode="&#xe7;" horiz-adv-x="1161" d="M123 585.5q0 108.5 9 190.5t39 166t79 137q115 121 340 121t328 -156l-3 127h105v-413h-94q-18 162 -96 241.5t-238 79.5q-88 0 -150.5 -30.5t-95.5 -74.5t-51 -116q-29 -102 -29 -223t3 -170t13.5 -112.5t33 -104.5t57.5 -80q72 -76 240.5 -76t231 59.5t70.5 186.5 l117 -6q-6 -88 -25.5 -147.5t-64.5 -112t-129 -77t-209 -24.5t-216 35t-141 88t-79 139t-37 165t-8 187.5zM371 -299h102q0 -45 21.5 -68.5t79 -23.5t80 23.5t22.5 70.5q0 82 -107 100l-108 21v74h121q92 0 144 -43t52 -146.5t-44 -153t-159.5 -49.5t-159.5 49.5t-44 145.5z " />
<glyph unicode="&#xe8;" horiz-adv-x="1204" d="M123 586q0 109 8 187.5t37 164.5t80 139t141 88t215 35t214 -35t139.5 -88t79 -139t36.5 -165t8 -187v-33h-815q2 -250 71 -355.5t262.5 -105.5t263 70.5t81.5 206.5l119 -7q-8 -88 -28.5 -150t-67.5 -122q-94 -119 -367.5 -119t-375 146.5t-101.5 468.5zM266 666h670 q-4 184 -59 288q-66 125 -275 125q-102 0 -171 -32.5t-103 -96.5q-57 -106 -62 -284zM377 1585l108 109l330 -330l-86 -86z" />
<glyph unicode="&#xe9;" horiz-adv-x="1204" d="M123 586q0 109 8 187.5t37 164.5t80 139t141 88t215 35t214 -35t139.5 -88t79 -139t36.5 -165t8 -187v-33h-815q2 -250 71 -355.5t262.5 -105.5t263 70.5t81.5 206.5l119 -7q-8 -88 -28.5 -150t-67.5 -122q-94 -119 -367.5 -119t-375 146.5t-101.5 468.5zM266 666h670 q-4 184 -59 288q-66 125 -275 125q-102 0 -171 -32.5t-103 -96.5q-57 -106 -62 -284zM455 1364l329 330l109 -109l-352 -307z" />
<glyph unicode="&#xea;" horiz-adv-x="1204" d="M123 586q0 109 8 187.5t37 164.5t80 139t141 88t215 35t214 -35t139.5 -88t79 -139t36.5 -165t8 -187v-33h-815q2 -250 71 -355.5t262.5 -105.5t263 70.5t81.5 206.5l119 -7q-8 -88 -28.5 -150t-67.5 -122q-94 -119 -367.5 -119t-375 146.5t-101.5 468.5zM266 666h670 q-4 184 -59 288q-66 125 -275 125q-102 0 -171 -32.5t-103 -96.5q-57 -106 -62 -284zM289 1364l278 317h60l278 -317l-86 -86l-223 225l-221 -225z" />
<glyph unicode="&#xeb;" horiz-adv-x="1204" d="M123 586q0 109 8 187.5t37 164.5t80 139t141 88t215 35t214 -35t139.5 -88t79 -139t36.5 -165t8 -187v-33h-815q2 -250 71 -355.5t262.5 -105.5t263 70.5t81.5 206.5l119 -7q-8 -88 -28.5 -150t-67.5 -122q-94 -119 -367.5 -119t-375 146.5t-101.5 468.5zM266 666h670 q-4 184 -59 288q-66 125 -275 125q-102 0 -171 -32.5t-103 -96.5q-57 -106 -62 -284zM291 1486q0 34 4 53.5t24.5 37.5t69.5 18t65.5 -28.5t16.5 -71.5t-4 -62.5t-25.5 -38t-61.5 -18.5t-60.5 18.5t-24.5 38t-4 53.5zM721 1486q0 34 4 53.5t24.5 37.5t69.5 18t65.5 -28.5 t16.5 -71.5t-4 -62.5t-25.5 -38t-61.5 -18.5t-60.5 18.5t-24.5 38t-4 53.5z" />
<glyph unicode="&#xec;" horiz-adv-x="655" d="M98 1585l109 109l330 -330l-86 -86zM143 0v102h123v967h-123v102h267v-1069h122v-102h-389z" />
<glyph unicode="&#xed;" horiz-adv-x="655" d="M143 0v102h123v967h-123v102h267v-1069h122v-102h-389zM150 1364l329 330l109 -109l-352 -307z" />
<glyph unicode="&#xee;" horiz-adv-x="655" d="M10 1364l279 317h59l279 -317l-86 -86l-224 225l-221 -225zM143 0v102h123v967h-123v102h267v-1069h122v-102h-389z" />
<glyph unicode="&#xef;" horiz-adv-x="655" d="M12 1486q0 34 4 53.5t24.5 37.5t70 18t66 -28.5t16.5 -71.5t-4.5 -62.5t-26 -38t-61.5 -18.5t-60.5 18.5t-24.5 38t-4 53.5zM143 0v102h123v967h-123v102h267v-1069h122v-102h-389zM442 1486q0 34 4.5 53.5t25 37.5t69.5 18t65.5 -28.5t16.5 -71.5t-4.5 -62.5t-26 -38 t-61 -18.5t-60 18.5t-25 38t-4.5 53.5z" />
<glyph unicode="&#xf0;" horiz-adv-x="1245" d="M123 503.5q0 65.5 4 117t16.5 109.5t34 100t59 83t91.5 66q115 57 312.5 57t307.5 -129q-47 201 -162 373l-221 -88v113l156 61q-45 53 -111 115l72 84q88 -76 154 -152l241 96v-112l-174 -70q217 -307 219 -778v-45q0 -221 -53 -328q-53 -100 -151 -147 q-115 -57 -295 -58q-272 0 -385 123q-96 102 -111 293q-4 51 -4 116.5zM266 504q0 -74 4 -122t24.5 -108.5t56.5 -96.5t104.5 -60.5t167 -24.5t167 24.5t104.5 60.5t56.5 96.5t24.5 108.5t4 122t-4 122t-24.5 108.5t-56.5 96t-104.5 60t-167 24.5t-167 -24.5t-104.5 -60 t-56.5 -96t-24.5 -108.5t-4 -122z" />
<glyph unicode="&#xf1;" horiz-adv-x="1290" d="M82 0v102h123v967h-123v102h219l35 -131q207 160 434 160q180 0 259 -89t79 -277v-732h123v-102h-389v102h123v734q0 129 -50.5 186t-166.5 57q-209 0 -400 -151v-826h123v-102h-389zM344 1403q55 190 180 190q53 0 153.5 -36.5t133.5 -36.5t53.5 20.5t36.5 69.5l103 -33 q-56 -191 -181 -191q-53 0 -153.5 37t-132 37t-52 -20.5t-36.5 -69.5z" />
<glyph unicode="&#xf2;" horiz-adv-x="1245" d="M123 586q0 76 4 134t16.5 124.5t34 116t59 96.5t90 76.5t127 48t169 18.5t169 -18.5t127 -48t90.5 -76.5t59.5 -96.5t33.5 -116t16 -124.5t4 -134t-4 -134.5t-16 -125t-33.5 -115.5t-59.5 -96t-90.5 -77t-127 -48.5t-169 -18.5t-169 18.5t-127 48.5t-90 77t-59 96 t-34 115.5t-16.5 125t-4 134.5zM266 586q0 -88 4 -146.5t24.5 -131t56.5 -114.5t104.5 -72t167 -30t167 30t104.5 72t56.5 114.5t24.5 131t4 146.5t-4 146.5t-24.5 131t-56.5 114.5t-104.5 71.5t-167 29.5t-167 -29.5t-104.5 -71.5t-56.5 -114.5t-24.5 -131t-4 -146.5z M403 1585l109 109l330 -330l-86 -86z" />
<glyph unicode="&#xf3;" horiz-adv-x="1245" d="M123 586q0 76 4 134t16.5 124.5t34 116t59 96.5t90 76.5t127 48t169 18.5t169 -18.5t127 -48t90.5 -76.5t59.5 -96.5t33.5 -116t16 -124.5t4 -134t-4 -134.5t-16 -125t-33.5 -115.5t-59.5 -96t-90.5 -77t-127 -48.5t-169 -18.5t-169 18.5t-127 48.5t-90 77t-59 96 t-34 115.5t-16.5 125t-4 134.5zM266 586q0 -88 4 -146.5t24.5 -131t56.5 -114.5t104.5 -72t167 -30t167 30t104.5 72t56.5 114.5t24.5 131t4 146.5t-4 146.5t-24.5 131t-56.5 114.5t-104.5 71.5t-167 29.5t-167 -29.5t-104.5 -71.5t-56.5 -114.5t-24.5 -131t-4 -146.5z M479 1364l330 330l109 -109l-353 -307z" />
<glyph unicode="&#xf4;" horiz-adv-x="1245" d="M123 586q0 76 4 134t16.5 124.5t34 116t59 96.5t90 76.5t127 48t169 18.5t169 -18.5t127 -48t90.5 -76.5t59.5 -96.5t33.5 -116t16 -124.5t4 -134t-4 -134.5t-16 -125t-33.5 -115.5t-59.5 -96t-90.5 -77t-127 -48.5t-169 -18.5t-169 18.5t-127 48.5t-90 77t-59 96 t-34 115.5t-16.5 125t-4 134.5zM266 586q0 -88 4 -146.5t24.5 -131t56.5 -114.5t104.5 -72t167 -30t167 30t104.5 72t56.5 114.5t24.5 131t4 146.5t-4 146.5t-24.5 131t-56.5 114.5t-104.5 71.5t-167 29.5t-167 -29.5t-104.5 -71.5t-56.5 -114.5t-24.5 -131t-4 -146.5z M313 1364l279 317h59l279 -317l-86 -86l-223 225l-222 -225z" />
<glyph unicode="&#xf5;" horiz-adv-x="1245" d="M123 586q0 76 4 134t16.5 124.5t34 116t59 96.5t90 76.5t127 48t169 18.5t169 -18.5t127 -48t90.5 -76.5t59.5 -96.5t33.5 -116t16 -124.5t4 -134t-4 -134.5t-16 -125t-33.5 -115.5t-59.5 -96t-90.5 -77t-127 -48.5t-169 -18.5t-169 18.5t-127 48.5t-90 77t-59 96 t-34 115.5t-16.5 125t-4 134.5zM266 586q0 -88 4 -146.5t24.5 -131t56.5 -114.5t104.5 -72t167 -30t167 30t104.5 72t56.5 114.5t24.5 131t4 146.5t-4 146.5t-24.5 131t-56.5 114.5t-104.5 71.5t-167 29.5t-167 -29.5t-104.5 -71.5t-56.5 -114.5t-24.5 -131t-4 -146.5z M293 1403q55 190 180 190q51 0 153.5 -36.5t134.5 -36.5t52.5 20.5t36.5 69.5l102 -33q-55 -191 -180 -191q-51 0 -151.5 37t-133 37t-53 -20.5t-37.5 -69.5z" />
<glyph unicode="&#xf6;" horiz-adv-x="1245" d="M123 586q0 76 4 134t16.5 124.5t34 116t59 96.5t90 76.5t127 48t169 18.5t169 -18.5t127 -48t90.5 -76.5t59.5 -96.5t33.5 -116t16 -124.5t4 -134t-4 -134.5t-16 -125t-33.5 -115.5t-59.5 -96t-90.5 -77t-127 -48.5t-169 -18.5t-169 18.5t-127 48.5t-90 77t-59 96 t-34 115.5t-16.5 125t-4 134.5zM266 586q0 -88 4 -146.5t24.5 -131t56.5 -114.5t104.5 -72t167 -30t167 30t104.5 72t56.5 114.5t24.5 131t4 146.5t-4 146.5t-24.5 131t-56.5 114.5t-104.5 71.5t-167 29.5t-167 -29.5t-104.5 -71.5t-56.5 -114.5t-24.5 -131t-4 -146.5z M317 1486q0 34 4.5 53.5t25 37.5t69.5 18t65.5 -28.5t16.5 -71.5t-4.5 -62.5t-26 -38t-61 -18.5t-60 18.5t-25 38t-4.5 53.5zM748 1486q0 34 4 53.5t24.5 37.5t69.5 18t65.5 -28.5t16.5 -71.5t-4 -62.5t-25.5 -38t-61.5 -18.5t-60.5 18.5t-24.5 38t-4 53.5z" />
<glyph unicode="&#xf7;" d="M193 590v123h802v-123h-802zM496 305q0 37 4 58.5t26.5 42t75.5 20.5t71.5 -33t18.5 -72.5t-3 -57t-13 -38.5q-18 -39 -99 -39t-81 119zM496 975q0 37 4 58.5t26.5 42t75.5 20.5t71.5 -33t18.5 -73t-3 -57.5t-13 -35.5q-18 -41 -99 -41t-81 119z" />
<glyph unicode="&#xf8;" horiz-adv-x="1245" d="M123 569q0 92 4 150.5t16.5 125t34 116t59 96.5t91.5 78q117 66 295 65q43 0 108 -8l57 213h109l-63 -234q184 -57 239 -229q49 -145 49 -356q0 -250 -53 -375q-53 -117 -151 -174q-117 -66 -295 -66q-59 0 -109 6l-57 -213h-107l62 236q-184 57 -240 229 q-49 145 -49 340zM266 537.5q0 -136.5 33 -250t145 -164.5l256 950q-37 6 -106.5 6t-138 -29.5t-104.5 -71.5t-56.5 -114.5t-24.5 -131t-4 -195zM545 96q49 -4 112.5 -4t132 30t104.5 72t56.5 114.5t24.5 131t4 145.5t-5 145t-22 126q-33 137 -151 191z" />
<glyph unicode="&#xf9;" horiz-adv-x="1425" d="M123 1069v102h266v-835q0 -131 52.5 -187.5t181.5 -56.5q219 0 413 178v799h-123v102h267v-1069h123v-102h-220l-41 150q-215 -178 -450 -179q-193 0 -269.5 86t-76.5 277v735h-123zM446 1585l109 109l330 -330l-86 -86z" />
<glyph unicode="&#xfa;" horiz-adv-x="1425" d="M123 1069v102h266v-835q0 -131 52.5 -187.5t181.5 -56.5q219 0 413 178v799h-123v102h267v-1069h123v-102h-220l-41 150q-215 -178 -450 -179q-193 0 -269.5 86t-76.5 277v735h-123zM592 1364l330 330l108 -109l-352 -307z" />
<glyph unicode="&#xfb;" horiz-adv-x="1425" d="M123 1069v102h266v-835q0 -131 52.5 -187.5t181.5 -56.5q219 0 413 178v799h-123v102h267v-1069h123v-102h-220l-41 150q-215 -178 -450 -179q-193 0 -269.5 86t-76.5 277v735h-123zM420 1364l278 317h60l278 -317l-86 -86l-223 225l-221 -225z" />
<glyph unicode="&#xfc;" horiz-adv-x="1425" d="M123 1069v102h266v-835q0 -131 52.5 -187.5t181.5 -56.5q219 0 413 178v799h-123v102h267v-1069h123v-102h-220l-41 150q-215 -178 -450 -179q-193 0 -269.5 86t-76.5 277v735h-123zM422 1486q0 34 4 53.5t24.5 37.5t69.5 18t65.5 -28.5t16.5 -71.5t-4 -62.5t-25.5 -38 t-61.5 -18.5t-60.5 18.5t-24.5 38t-4 53.5zM852 1486q0 34 4 53.5t24.5 37.5t69.5 18t65.5 -28.5t16.5 -71.5t-4 -62.5t-25.5 -38t-61.5 -18.5t-60.5 18.5t-24.5 38t-4 53.5z" />
<glyph unicode="&#xfd;" horiz-adv-x="1171" d="M20 1069v102h340v-102h-116l342 -913l340 913h-115v102h340v-102h-80l-532 -1401q-27 -70 -57.5 -101.5t-94.5 -31.5h-184v103l121 10q51 4 67.5 18.5t32.5 54.5l94 252l-418 1096h-80zM475 1364l330 330l108 -109l-352 -307z" />
<glyph unicode="&#xfe;" horiz-adv-x="1302" d="M82 -350h123v1771h-123v115h266v-473q156 137 342 137q117 0 202 -35t132 -88t74.5 -139t35 -165t7.5 -187.5t-7.5 -187.5t-35 -165t-74.5 -139t-132 -88t-229.5 -35t-314.5 76v-397h164v-115h-430v115zM348 168q147 -66 342 -66q197 0 258 142q31 72 40 148.5t9 176 t-5 161t-23.5 129t-50 110.5t-90 71.5t-138.5 28.5q-188 0 -342 -145v-756z" />
<glyph unicode="&#xff;" horiz-adv-x="1171" d="M20 1069v102h340v-102h-116l342 -913l340 913h-115v102h340v-102h-80l-532 -1401q-27 -70 -57.5 -101.5t-94.5 -31.5h-184v103l121 10q51 4 67.5 18.5t32.5 54.5l94 252l-418 1096h-80zM322 1486q0 34 4 53.5t24.5 37.5t69.5 18t65.5 -28.5t16.5 -71.5t-4 -62.5 t-25.5 -38t-61.5 -18.5t-60.5 18.5t-24.5 38t-4 53.5zM752 1486q0 34 4 53.5t24.5 37.5t69.5 18t65.5 -28.5t16.5 -71.5t-4 -62.5t-25.5 -38t-61.5 -18.5t-60.5 18.5t-24.5 38t-4 53.5z" />
<glyph unicode="&#x152;" horiz-adv-x="2074" d="M123 746.5q0 156.5 9 259t43 204t95 158.5q137 127 420 127h1221v-324h-115v203h-694q86 -80 119.5 -214t38.5 -339h548v-123h-548q-4 -219 -37 -357t-121 -220h735v203h115v-324h-1262q-287 0 -420 127q-61 55 -95 157.5t-43 204t-9 258zM270.5 747.5 q-0.5 -131.5 7 -216.5t32 -170t69.5 -132q100 -109 311 -108h27q197 4 291 115q80 92 98 301q6 84 6 210.5t-7 210.5t-30.5 168t-66.5 131q-92 109 -291 117h-27q-211 0 -311 -108q-84 -88 -100 -303q-8 -84 -8.5 -215.5z" />
<glyph unicode="&#x153;" horiz-adv-x="2021" d="M123 550.5q0 111.5 4 169.5t16.5 124.5t34 116t59 96.5t91.5 78q117 66 295 65q289 0 407 -170q113 170 391 170q125 0 214 -35t139.5 -88t79 -139t36.5 -165t8 -187v-33h-815q2 -250 71 -355.5t262.5 -105.5t263 70.5t81.5 206.5l119 -7q-8 -88 -28.5 -150t-65.5 -122 q-96 -119 -373.5 -119t-386.5 166q-113 -166 -403 -166q-414 0 -480 357q-20 111 -20 222.5zM266 586q0 -88 4 -146.5t24.5 -131t56.5 -114.5t105 -72t167 -30q156 0 239.5 65.5t93.5 174.5q-16 98 -16 250.5t18 255.5q-12 109 -96 175t-239 66q-98 0 -167 -29.5t-105 -71.5 t-56.5 -114.5t-24.5 -131t-4 -146.5zM1083 666h670q-4 184 -59 288q-66 125 -273 125q-104 0 -172.5 -32.5t-101.5 -96.5q-59 -106 -64 -284z" />
<glyph unicode="&#x178;" horiz-adv-x="1007" d="M-51 1380v115h373v-115h-127l309 -700l307 700h-125v115h373v-115h-94l-387 -858v-407h143v-115h-434v115h143v407l-389 858h-92zM199 1809.5q0 33.5 4 53t24.5 38t69.5 18.5t65.5 -28.5t16.5 -71.5t-4 -62.5t-25.5 -38t-61.5 -18.5t-60.5 18.5t-24.5 38t-4 53z M629 1809.5q0 33.5 4 53t24.5 38t69.5 18.5t65.5 -28.5t16.5 -71.5t-4 -62.5t-25.5 -38t-61.5 -18.5t-60.5 18.5t-24.5 38t-4 53z" />
<glyph unicode="&#x2c6;" horiz-adv-x="821" d="M102 1364l279 317h59l279 -317l-86 -86l-223 225l-222 -225z" />
<glyph unicode="&#x2dc;" horiz-adv-x="839" d="M90 1403q55 190 180 190q53 0 153.5 -36.5t133.5 -36.5t53.5 20.5t36.5 69.5l103 -33q-56 -191 -181 -191q-53 0 -153.5 37t-132 37t-52 -20.5t-36.5 -69.5z" />
<glyph unicode="&#x2000;" horiz-adv-x="1008" />
<glyph unicode="&#x2001;" horiz-adv-x="2017" />
<glyph unicode="&#x2002;" horiz-adv-x="1008" />
<glyph unicode="&#x2003;" horiz-adv-x="2017" />
<glyph unicode="&#x2004;" horiz-adv-x="672" />
<glyph unicode="&#x2005;" horiz-adv-x="504" />
<glyph unicode="&#x2006;" horiz-adv-x="336" />
<glyph unicode="&#x2007;" horiz-adv-x="336" />
<glyph unicode="&#x2008;" horiz-adv-x="252" />
<glyph unicode="&#x2009;" horiz-adv-x="403" />
<glyph unicode="&#x200a;" horiz-adv-x="112" />
<glyph unicode="&#x2010;" horiz-adv-x="1007" d="M143 590v123h721v-123h-721z" />
<glyph unicode="&#x2011;" horiz-adv-x="1007" d="M143 590v123h721v-123h-721z" />
<glyph unicode="&#x2012;" horiz-adv-x="1007" d="M143 590v123h721v-123h-721z" />
<glyph unicode="&#x2013;" d="M143 590v123h901v-123h-901z" />
<glyph unicode="&#x2014;" horiz-adv-x="1869" d="M143 590v123h1583v-123h-1583z" />
<glyph unicode="&#x2018;" horiz-adv-x="538" d="M143 1256.5q0 56.5 21.5 113.5t52.5 96q66 90 111 123l20 15l47 -56q-27 -25 -39 -41q-39 -47 -39 -121q0 -18 11.5 -61t11.5 -74.5t-4 -53t-26.5 -41t-76 -19.5t-72 31.5t-18.5 88z" />
<glyph unicode="&#x2019;" horiz-adv-x="538" d="M143 1192q27 25 41 41q37 47 37 121q0 18 -11 61t-11 75t4 53.5t26.5 41t75.5 19.5t71.5 -32t18.5 -88.5t-21.5 -113.5t-49.5 -96q-68 -90 -111 -123l-23 -14z" />
<glyph unicode="&#x201a;" horiz-adv-x="462" d="M78 -190q27 25 41 40q39 45 39 121l-25 131q0 37 4 58.5t26.5 42t76 20.5t72 -32.5t18.5 -89t-21.5 -114t-50.5 -98.5q-68 -88 -111 -118l-22 -17z" />
<glyph unicode="&#x201c;" horiz-adv-x="860" d="M143 1256.5q0 56.5 21.5 113.5t52.5 96q66 90 111 123l20 15l49 -56q-41 -35 -60.5 -68.5t-19.5 -72.5t11.5 -82t11.5 -74.5t-4 -53t-26.5 -41t-76 -19.5t-72 31.5t-18.5 88zM465 1256.5q0 56.5 21.5 113.5t50.5 96q68 90 110 123l23 15l47 -56q-27 -25 -41 -41 q-37 -47 -37 -121q0 -18 11.5 -61t11.5 -74.5t-4.5 -53t-27 -41t-75.5 -19.5t-71.5 31.5t-18.5 88z" />
<glyph unicode="&#x201d;" horiz-adv-x="860" d="M143 1192q27 25 41 41q37 47 37 121q0 18 -11 61t-11 75t4 53.5t26.5 41t75.5 19.5t71.5 -32t18.5 -88.5t-21.5 -113.5t-49.5 -96q-68 -90 -111 -123l-23 -14zM463 1192q41 35 60.5 68.5t19.5 72.5t-11.5 82t-11.5 75t4 53.5t26.5 41t76 19.5t72 -32t18.5 -88.5 t-21.5 -113.5t-52.5 -96q-66 -90 -111 -123l-20 -14z" />
<glyph unicode="&#x201e;" horiz-adv-x="784" d="M78 -190q27 25 41 40q37 47 37 121q0 19 -11.5 62t-11.5 74.5t4 53t26.5 41t76 19.5t72 -31.5t18.5 -88t-21.5 -114t-50.5 -98.5q-68 -88 -111 -118l-22 -17zM397 -190q41 35 60.5 68.5t19.5 72.5t-11 82t-11 74.5t4 53t26.5 41t75.5 19.5t71.5 -31.5t18.5 -88 t-21.5 -114t-51.5 -98.5q-66 -88 -111 -118l-21 -17z" />
<glyph unicode="&#x2022;" horiz-adv-x="540" d="M123 672.5q0 62.5 7 96.5t41 63.5t91 29.5t89 -14t45.5 -44t17.5 -56.5t4 -65.5t-4 -64.5t-17.5 -55.5t-45.5 -44t-82 -14t-80.5 15.5t-45.5 43.5q-20 47 -20 109.5z" />
<glyph unicode="&#x2026;" horiz-adv-x="1388" d="M133 102q0 37 4 58.5t26.5 42t76 20.5t72 -32.5t18.5 -72.5t-3 -57.5t-12 -35.5q-20 -41 -101 -41.5t-81 118.5zM596 102q0 37 4 58.5t26.5 42t76 20.5t72 -32.5t18.5 -72.5t-3.5 -57.5t-11.5 -35.5q-20 -41 -101 -41.5t-81 118.5zM1059 102q0 37 4 58.5t26.5 42t76 20.5 t71.5 -32.5t18 -72.5t-3 -57.5t-11 -35.5q-20 -41 -101 -41.5t-81 118.5z" />
<glyph unicode="&#x202f;" horiz-adv-x="403" />
<glyph unicode="&#x2039;" horiz-adv-x="624" d="M61 612v66l345 383l96 -94l-254 -322l254 -321l-96 -95z" />
<glyph unicode="&#x203a;" horiz-adv-x="624" d="M123 324l254 321l-254 322l96 94l344 -383v-66l-344 -383z" />
<glyph unicode="&#x205f;" horiz-adv-x="504" />
<glyph unicode="&#x20ac;" d="M96 502v123h129v123h-129v122h133q8 131 32 222.5t79 164.5q106 143 383 144q203 0 294 -87t95 -255h-127q0 219 -262 219q-186 0 -262 -98.5t-88 -309.5h395v-122h-399v-123h399v-123h-395q12 -213 88 -311.5t262 -98.5q264 0 264 225h125q-4 -170 -94 -258t-295 -88 q-270 0 -374.5 131t-119.5 400h-133z" />
<glyph unicode="&#x2122;" horiz-adv-x="1955" d="M154 1393v102h579v-102h-233v-803h-115v803h-231zM901 590v905h162l240 -686l258 686h159v-905h-114v733l-250 -651h-109l-231 645v-727h-115z" />
<glyph unicode="&#xe000;" horiz-adv-x="1167" d="M0 0v1167h1167v-1167h-1167z" />
<glyph unicode="&#xfb01;" horiz-adv-x="1306" d="M102 1069v102h140v70q0 160 55 232.5t229 72.5h125v-102l-125 -10q-86 -8 -113.5 -47.5t-27.5 -135.5v-80h246v-102h-246v-967h164v-102h-430v102h123v967h-140zM795 0v102h123v967h-123v102h266v-1069h123v-102h-389zM901 1486q0 34 4 53.5t24.5 37.5t70 18t65.5 -28.5 t16 -71.5t-4 -62.5t-25.5 -38t-61.5 -18.5t-60.5 18.5t-24.5 38t-4 53.5z" />
<glyph unicode="&#xfb02;" horiz-adv-x="1286" d="M102 1069v102h140v70q0 160 55 232.5t229 72.5h125v-102l-125 -10q-86 -8 -113.5 -47.5t-27.5 -135.5v-80h246v-102h-246v-967h164v-102h-430v102h123v967h-140zM774 0v102h123v1332h-123v102h266v-1434h123v-102h-389z" />
</font>
</defs>
</svg>
